<svg version="1.1" id="Слой_1" preserveAspectRatio="xMidYMin" viewBox="0 0 64 64" xmlns="http://www.w3.org/2000/svg" xmlns:xlink="http://www.w3.org/1999/xlink"
	xml:space="preserve">
<style type="text/css">
	.st0{fill:#D1AF69;}
	.st3{fill:#192542;}
</style>
<polygon class="st0" points="6.9,16.4 48.8,0 16.5,20.1 "/>
<g>
	<polygon class="st3" points="18.4,30.1 18.4,35.7 45.3,17.3 45.3,11.7 29.7,22.4 		"/>
	<path class="st3" d="M45.3,20.7l-4.6,3.2c2.7,1.5,4.8,3.6,6.4,6.2c-0.1,0.2-0.2,0.3-0.3,0.5c-0.8,1-1.5,2-2.3,3.1
		c-0.1,0.1-0.1,0.2-0.1,0.3c0.3,0.8,0.7,1.6,1,2.4c0,0.1,0.2,0.2,0.3,0.2c0.7,0.1,1.4,0.2,2.1,0.3c0.6,0.1,1.2,0.2,1.8,0.3
		c0.1,0.8,0.2,1.6,0.2,2.4c0,1.4-0.2,2.8-0.5,4.1c-1,0.2-2,0.3-3,0.5c-0.1,0-0.1,0-0.1,0c0,0,0,0-0.1,0c-0.7,0.1-0.8,0.3-0.8,0.3
		l-0.3,0.8L44.4,47c-0.1,0.1-0.1,0.2,0,0.3c0.7,0.9,1.4,1.8,2.1,2.7c-1.3,1.9-3,3.5-4.9,4.7L41,54.3l-0.3-0.2l0-30.2l-3.6,2.5
		L37,56.9c-1.1,0.3-2.3,0.6-3.5,0.7l0-28.9l-3.6,2.5l-0.1,26.3c-1.2-0.1-2.3-0.4-3.5-0.7l0-23.3l-3.6,2.5l0,19.2
		c-4.6-2.6-7.9-7.2-8.9-12.5c0-0.2-0.1-0.4-0.1-0.6c0-0.1,0-0.1,0-0.2c-0.1-0.8-0.2-1.6-0.2-2.4c0-0.1,0-0.1,0-0.2
		c0-4.4,1.7-8.4,4.3-11.5c1.5-1.8,3.4-3.3,5.5-4.4l10.3-7.1l11.7-8l3.6-8L23.2,17.9l-4.3,3l0,0c-3.2,2.1-5.5,4.3-7.2,6.7
		c-2.1,3.5-3.4,7.6-3.4,12.1c0,12.9,10.4,23.3,23.3,23.3C44.5,62.9,55,52.5,55,39.6C55,31.9,51.2,25,45.3,20.7z"/>
</g>
</svg>
